<?xml version="1.0" encoding="UTF-8"?>
<svg viewBox="0 -3 100.5 100.5" height="100.5" width="100.5" version="1.1" xmlns="http://www.w3.org/2000/svg" xmlns:xlink="http://www.w3.org/1999/xlink">
  <circle xmlns="http://www.w3.org/2000/svg" cx="50" cy="50" r="50" transform="translate(0 -3)scale(.975)" fill="#5588a3"/>
  <g fill="#fff">
    <path xmlns="http://www.w3.org/2000/svg" d="M79.413 44.477c-8.023 2.295-20.575 3.898-30.525 3.898s-22.502-1.602-30.525-3.898a.924.924 0 1 0-.509 1.777c8.172 2.337 20.932 3.97 31.034 3.97s22.862-1.633 31.034-3.97a.924.924 0 1 0-.509-1.778Z"/>
    <path xmlns="http://www.w3.org/2000/svg" d="M85.31 41.157c-5.265-4.44-20.075-5.686-31.94-5.93v-2.938a4.4 4.4 0 0 0-2.058-3.716v-5.08h2.87a2.747 2.747 0 1 0 0-5.493H43.594a2.747 2.747 0 1 0 0 5.493h2.866v5.197a4.4 4.4 0 0 0-1.88 3.6v2.936c-11.94.238-26.842 1.48-32.115 5.932-2.029 1.717-2.812 4.094-2.325 7.073 1.833 11.22 13.08 24.327 38.748 24.327s36.915-13.107 38.749-24.327c.486-2.979-.297-5.356-2.327-7.074m-42.614-20.41a.9.9 0 0 1 .898-.898h10.588a.898.898 0 1 1 0 1.796H43.594a.9.9 0 0 1-.898-.898m5.612 7.148v-4.402h1.155v4.4Zm.667 1.849a2.55 2.55 0 0 1 2.547 2.547v9.284a.465.465 0 0 1-.464.465h-4.166a.465.465 0 0 1-.464-.465V32.29a2.55 2.55 0 0 1 2.547-2.546m36.837 18.189C84.096 58.44 73.396 70.709 48.888 70.709S13.68 58.44 11.964 47.933c-.38-2.325.174-4.08 1.694-5.361 3.82-3.226 14.789-5.17 30.921-5.495v4.499a2.315 2.315 0 0 0 2.313 2.313h4.166a2.315 2.315 0 0 0 2.312-2.313v-4.499c9.709.204 25.67 1.21 30.75 5.495 1.518 1.281 2.072 3.036 1.692 5.36"/>
  </g>
  <g transform="translate(116.45 3.008)scale(1.43551)" fill="#00334e"/>
</svg>
