<?xml version="1.0" encoding="UTF-8"?>
<svg viewBox="0 -3 414.222 124.875" height="124.875" width="414.222" version="1.1" xmlns="http://www.w3.org/2000/svg" xmlns:xlink="http://www.w3.org/1999/xlink">
  <circle xmlns="http://www.w3.org/2000/svg" cx="50" cy="50" r="50" transform="translate(0 -3)scale(1.21875)" fill="#5588a3"/>
  <g fill="#fff">
    <path xmlns="http://www.w3.org/2000/svg" d="M91.413 57.477c-8.023 2.295-20.575 3.898-30.525 3.898s-22.502-1.602-30.525-3.898a.924.924 0 1 0-.509 1.777c8.172 2.337 20.932 3.97 31.034 3.97s22.862-1.633 31.034-3.97a.924.924 0 1 0-.509-1.778Z"/>
    <path xmlns="http://www.w3.org/2000/svg" d="M97.31 54.157c-5.265-4.44-20.075-5.686-31.94-5.93v-2.938a4.4 4.4 0 0 0-2.058-3.716v-5.08h2.87a2.747 2.747 0 1 0 0-5.493H55.594a2.747 2.747 0 1 0 0 5.493h2.866v5.197a4.4 4.4 0 0 0-1.88 3.6v2.936c-11.94.238-26.842 1.48-32.115 5.932-2.029 1.717-2.812 4.094-2.325 7.073 1.833 11.22 13.08 24.327 38.748 24.327s36.915-13.107 38.749-24.327c.486-2.979-.297-5.356-2.327-7.074m-42.614-20.41a.9.9 0 0 1 .898-.898h10.588a.898.898 0 1 1 0 1.796H55.594a.9.9 0 0 1-.898-.898m5.612 7.148v-4.402h1.155v4.4Zm.667 1.849a2.55 2.55 0 0 1 2.547 2.547v9.284a.465.465 0 0 1-.464.465h-4.166a.465.465 0 0 1-.464-.465V45.29a2.55 2.55 0 0 1 2.547-2.546Zm36.837 18.189C96.096 71.44 85.396 83.709 60.888 83.709S25.68 71.44 23.964 60.933c-.38-2.325.174-4.08 1.694-5.361 3.82-3.226 14.789-5.17 30.921-5.495v4.499a2.315 2.315 0 0 0 2.313 2.313h4.166a2.315 2.315 0 0 0 2.312-2.313v-4.499c9.709.204 25.67 1.21 30.75 5.495 1.518 1.281 2.072 3.036 1.692 5.36"/>
  </g>
  <path d="M142 71.567v-8.096c.69.172 1.55.344 2.527.46q1.464.258 3.1.344c1.637.086 2.183.115 3.33.172s2.24.115 3.216.115c2.7 0 4.594-.172 5.743-.46 1.09-.287 1.665-.803 1.665-1.607 0-.69-.517-1.206-1.034-1.608-1.895-1.263-4.134-1.78-6.374-2.297-6.316-1.263-12.115-3.79-12.115-11.025 0-8.555 8.096-10.565 15.044-10.565 3.847 0 7.752.402 11.484 1.32v8.097c-.574-.172-1.32-.287-2.24-.46-.976-.114-1.952-.23-3.043-.344a64 64 0 0 0-6.603-.344c-1.263 0-3.905 0-5.11.459-.804.287-1.321.632-1.321 1.55q0 .69.344 1.206c.23.402.632.69 1.149.976 1.55.862 3.56 1.378 5.282 1.78 1.436.345 2.872.747 4.364 1.149 5.053 1.378 8.384 4.191 8.384 9.589 0 8.9-8.843 10.795-15.963 10.795-3.905 0-7.981-.287-11.829-1.206m48.778-13.494c0 4.25 2.124 6.661 6.43 6.661 1.206 0 2.297-.172 3.159-.574 1.608-.632 2.699-1.838 3.273-3.503q.344-1.206.344-2.584c0-1.378-.115-1.78-.344-2.584-.632-1.78-1.608-2.756-3.273-3.56-.862-.344-1.953-.516-3.158-.516-4.307 0-6.431 2.411-6.431 6.66m0 11.484v14.355h-8.614V58.073c0-9.187 6.489-14.642 15.16-14.642 8.842 0 15.273 5.8 15.273 14.585 0 8.154-6.144 14.7-14.297 14.7q-2.498 0-4.307-.862a8.7 8.7 0 0 1-3.215-2.297m47.399-4.823c4.191 0 6.603-2.469 6.603-6.66s-2.412-6.661-6.603-6.661-6.604 2.469-6.604 6.66 2.412 6.661 6.604 6.661m0 7.982c-8.843 0-15.217-5.857-15.217-14.643 0-9.072 6.604-14.642 15.217-14.642 8.9 0 15.216 5.857 15.216 14.642 0 9.015-6.66 14.643-15.216 14.643m47.514-28.998h8.613v14.355c0 8.786-6.087 14.643-14.643 14.643-8.785 0-14.642-6.144-14.642-14.643V43.718h8.613v14.355c0 3.847 1.953 6.661 6.03 6.661 4.191 0 6.029-2.756 6.029-6.66zm48.892 20.729v7.981h-26.127v-35.14h8.613v27.159zm19.55-9.819c.861.287 1.837.517 2.87.632 1.034.172 2.01.23 2.93.23 1.148 0 4.076-.23 4.076-1.895 0-1.78-2.526-1.838-3.79-1.838-2.526 0-4.708.574-6.086 2.871m16.25 8.843v8.039c-3.216.746-6.431 1.263-9.762 1.263-9.13 0-15.905-5.34-15.905-14.585 0-9.13 6.546-14.757 15.216-14.757 5.915 0 12.748 2.814 12.748 9.532 0 6.66-7.235 9.13-12.805 9.13-2.125 0-4.25-.574-6.202-1.378 1.149 3.215 4.594 3.732 7.58 3.732 1.55 0 3.1-.057 4.651-.287 1.436-.115 3.1-.287 4.479-.69m43.839-5.397v14.355h-8.613V58.073c0-3.962-1.838-6.66-6.03-6.66-4.134 0-6.028 2.756-6.028 6.66v14.355h-8.614V58.073c0-8.842 6.087-14.642 14.643-14.642 8.9 0 14.642 6.087 14.642 14.642" fill="#00334e"/>
</svg>
