<svg viewBox="0 -2.595 358.246 108" height="108" width="358.246" xmlns="http://www.w3.org/2000/svg"><path xmlns="http://www.w3.org/2000/svg" cx="50" cy="50" r="50" transform="translate(0 -3)scale(1.21875)" fill="#5588a3" d="M86.486 43.243A43.243 43.243 0 0 1 43.243 86.486A43.243 43.243 0 0 1 0 43.243A43.243 43.243 0 0 1 86.486 43.243z"/><g fill="#fff"><path xmlns="http://www.w3.org/2000/svg" d="M79.06 49.71c-6.939 1.985 -17.795 3.371 -26.4 3.371s-19.461 -1.386 -26.4 -3.371a0.799 0.799 0 1 0 -0.44 1.537c7.068 2.021 18.103 3.434 26.84 3.434s19.773 -1.412 26.84 -3.434a0.799 0.799 0 1 0 -0.44 -1.538Z"/><path xmlns="http://www.w3.org/2000/svg" d="M84.16 46.838c-4.554 -3.84 -17.362 -4.918 -27.624 -5.129v-2.541a3.805 3.805 0 0 0 -1.78 -3.214v-4.394h2.482a2.376 2.376 0 1 0 0 -4.751H48.081a2.376 2.376 0 1 0 0 4.751h2.479v4.495a3.805 3.805 0 0 0 -1.626 3.114v2.539c-10.326 0.206 -23.215 1.28 -27.775 5.13 -1.755 1.485 -2.432 3.541 -2.011 6.117 1.585 9.704 11.312 21.04 33.512 21.04s31.926 -11.336 33.513 -21.04c0.42 -2.576 -0.257 -4.632 -2.013 -6.118m-36.855 -17.652a0.778 0.778 0 0 1 0.777 -0.777h9.157a0.777 0.777 0 1 1 0 1.553H48.081a0.778 0.778 0 0 1 -0.777 -0.777m4.854 6.182v-3.807h0.999v3.805Zm0.577 1.599a2.205 2.205 0 0 1 2.203 2.203v8.029a0.402 0.402 0 0 1 -0.401 0.402h-3.603a0.402 0.402 0 0 1 -0.401 -0.402V39.17a2.205 2.205 0 0 1 2.203 -2.202m31.859 15.731C83.11 61.786 73.856 72.397 52.66 72.397S22.21 61.786 20.726 52.699c-0.329 -2.011 0.15 -3.529 1.465 -4.637 3.304 -2.79 12.79 -4.471 26.742 -4.752v3.891a2.002 2.002 0 0 0 2 2h3.603a2.002 2.002 0 0 0 2 -2v-3.891c8.397 0.176 22.201 1.046 26.595 4.752 1.313 1.108 1.792 2.626 1.463 4.636"/></g><path d="M122.811 61.896v-7.002c0.597 0.149 1.341 0.298 2.186 0.398q1.266 0.223 2.681 0.298c1.416 0.074 1.888 0.099 2.88 0.149s1.937 0.099 2.781 0.099c2.335 0 3.973 -0.149 4.967 -0.398 0.943 -0.248 1.44 -0.694 1.44 -1.39 0 -0.597 -0.447 -1.043 -0.894 -1.391 -1.639 -1.092 -3.575 -1.539 -5.513 -1.987 -5.462 -1.092 -10.478 -3.278 -10.478 -9.535 0 -7.399 7.002 -9.137 13.011 -9.137 3.327 0 6.704 0.348 9.932 1.142v7.003c-0.496 -0.149 -1.142 -0.248 -1.937 -0.398 -0.844 -0.099 -1.688 -0.199 -2.632 -0.298a55.351 55.351 0 0 0 -5.711 -0.298c-1.092 0 -3.377 0 -4.419 0.397 -0.695 0.248 -1.142 0.547 -1.142 1.341q0 0.597 0.298 1.043c0.199 0.348 0.547 0.597 0.994 0.844 1.341 0.746 3.079 1.192 4.568 1.539 1.242 0.298 2.484 0.646 3.774 0.994 4.37 1.192 7.251 3.625 7.251 8.293 0 7.697 -7.648 9.336 -13.806 9.336 -3.377 0 -6.902 -0.248 -10.23 -1.043m42.186 -11.67c0 3.676 1.837 5.761 5.561 5.761 1.043 0 1.987 -0.149 2.732 -0.496 1.391 -0.547 2.334 -1.59 2.831 -3.03q0.298 -1.043 0.298 -2.235c0 -1.192 -0.099 -1.539 -0.298 -2.235 -0.547 -1.539 -1.391 -2.384 -2.831 -3.079 -0.746 -0.298 -1.689 -0.446 -2.731 -0.446 -3.725 0 -5.562 2.085 -5.562 5.76m0 9.932v12.415h-7.45V50.225c0 -7.946 5.612 -12.663 13.111 -12.663 7.647 0 13.209 5.016 13.209 12.614 0 7.052 -5.314 12.714 -12.365 12.714q-2.16 0 -3.725 -0.746a7.524 7.524 0 0 1 -2.781 -1.987m40.994 -4.171c3.625 0 5.711 -2.135 5.711 -5.76s-2.086 -5.761 -5.711 -5.761 -5.712 2.135 -5.712 5.76 2.086 5.761 5.712 5.761m0 6.903c-7.648 0 -13.161 -5.066 -13.161 -12.664 0 -7.846 5.712 -12.663 13.161 -12.663 7.697 0 13.16 5.066 13.16 12.663 0 7.797 -5.76 12.664 -13.16 12.664m41.093 -25.079h7.449v12.415c0 7.599 -5.264 12.664 -12.664 12.664 -7.598 0 -12.663 -5.314 -12.663 -12.664V37.81h7.449v12.415c0 3.327 1.689 5.761 5.215 5.761 3.625 0 5.214 -2.384 5.214 -5.76zm42.285 17.928v6.902h-22.596v-30.391h7.449v23.489zm16.908 -8.492c0.745 0.248 1.589 0.447 2.482 0.547 0.894 0.149 1.738 0.199 2.534 0.199 0.993 0 3.525 -0.199 3.525 -1.639 0 -1.539 -2.185 -1.59 -3.278 -1.59 -2.185 0 -4.072 0.496 -5.264 2.483m14.054 7.648v6.953c-2.781 0.645 -5.562 1.092 -8.443 1.092 -7.896 0 -13.756 -4.618 -13.756 -12.614 0 -7.896 5.661 -12.763 13.16 -12.763 5.116 0 11.025 2.434 11.025 8.244 0 5.76 -6.257 7.896 -11.075 7.896 -1.838 0 -3.676 -0.496 -5.364 -1.192 0.994 2.781 3.973 3.228 6.556 3.228 1.341 0 2.681 -0.049 4.022 -0.248 1.242 -0.099 2.681 -0.248 3.874 -0.597m37.915 -4.668v12.415h-7.449V50.225c0 -3.427 -1.59 -5.76 -5.215 -5.76 -3.575 0 -5.213 2.384 -5.213 5.76v12.415h-7.45V50.225c0 -7.647 5.264 -12.663 12.664 -12.663 7.697 0 12.663 5.264 12.663 12.663" fill="#00334e"/></svg>